# xmcd
#
# Track frame offsets:
#	182
#	11045
#	22127
#	32117
#	43770
#	56272
#	68157
#	78145
#	90357
#	102005
#	112482
#	121695
#	134800
#	144082
#	156050
#	167257
#	180175
#	190360
#	202522
#	213052
#	226790
#	238410
#	251167
#	261887
#	271927
#
# Disc length: 3834
#
# Revision: 2
# Processed by: cddbd v1.5.1PL0 Copyright (c) Steve Scherf et al.
# Submitted via: ExactAudioCopy v0.95a3
# Normalized: r1:DSETVAR1
#
DISCID=480ef819
DTITLE=Various Artist - Nashville Classics 1960s
DYEAR=1995
DGENRE=Country
TTITLE0=Hank Locklin - Please Help Me I'm Falling
TTITLE1=Floyd Cramer - Last Date
TTITLE2=Roger Miller - When Two Worlds Collide
TTITLE3=Don Gibson - Sea Of Heartbreak
TTITLE4=Hank Snow - I've Been Every Where
TTITLE5=Skeeter Davis - The End Of The World
TTITLE6=George Hamilton IV - Abilene
TTITLE7=Bobby Bare - 500 Miles Away From Home
TTITLE8=Dottie West - Here Comes My Baby
TTITLE9=Connie Smith - Once A Day
TTITLE10=Norma Jean - I Wouldn't Buy A Used Car From Him
TTITLE11=Carl Belew - Crystal Chandelier
TTITLE12=Waylon Jennings - Stop The World (And Let Me Off)
TTITLE13=Eddy Arnold - Make The World Go Away
TTITLE14=Ssgt. Barry Sadler - The Ballad Of The Green Berets
TTITLE15=Jim Reeves - Distant Drums
TTITLE16=Charley Pride - Just Between You And Me
TTITLE17=Liz Anderson - Mama Spank
TTITLE18=Jim Ed Brown - Pop A Top
TTITLE19=John Hartford - Gentle On My Mind
TTITLE20=Porter Wagoner and Dolly Parton - The Last Thing On My Mind
TTITLE21=Porter Wagoner - The Carroll County Accident
TTITLE22=Nat Stuckey - Plastic Saddle
TTITLE23=Willie Nelson - Bring Me Sunshine
TTITLE24=Dolly Parton - My Blue Ridge Mountain Boy
EXTD=
EXTT0=
EXTT1=
EXTT2=
EXTT3=
EXTT4=
EXTT5=
EXTT6=
EXTT7=
EXTT8=
EXTT9=
EXTT10=
EXTT11=
EXTT12=
EXTT13=
EXTT14=
EXTT15=
EXTT16=
EXTT17=
EXTT18=
EXTT19=
EXTT20=
EXTT21=
EXTT22=
EXTT23=
EXTT24=
PLAYORDER=
